<svg role="img" viewBox="0 0 24 24" xmlns="http://www.w3.org/2000/svg" width="33" height="26">
  <title>GitHub</title>
  <path d="M12 0C5.37 0 0 5.37 0 12c0 5.3 3.438 9.8 8.205 11.387.6.11.82-.26.82-.577v-2.232c-3.338.726-4.033-1.612-4.033-1.612-.546-1.387-1.333-1.756-1.333-1.756-1.09-.746.083-.73.083-.73 1.205.086 1.84 1.237 1.84 1.237 1.07 1.835 2.81 1.305 3.495.998.108-.775.418-1.305.76-1.605-2.665-.303-5.466-1.334-5.466-5.93 0-1.31.47-2.38 1.236-3.22-.124-.303-.536-1.524.116-3.176 0 0 1.008-.322 3.3 1.23a11.49 11.49 0 013.003-.404c1.02.005 2.048.138 3.003.404 2.29-1.552 3.296-1.23 3.296-1.23.656 1.652.244 2.873.12 3.176.77.84 1.236 1.91 1.236 3.22 0 4.61-2.807 5.624-5.48 5.92.428.372.812 1.1.812 2.22v3.293c0 .317.216.694.824.576C20.565 21.796 24 17.3 24 12 24 5.37 18.63 0 12 0z"/>
</svg>